<svg width="95" height="11" viewBox="0 0 95 11" fill="none" xmlns="http://www.w3.org/2000/svg">
<path d="M3.206 10.8024C5.18 10.8024 6.384 8.94036 6.384 5.59436C6.384 2.24836 5.18 0.45636 3.206 0.45636C1.204 0.45636 0 2.24836 0 5.59436C0 8.94036 1.204 10.8024 3.206 10.8024ZM3.206 9.76636C2.03 9.76636 1.232 8.52036 1.232 5.59436C1.232 2.65436 2.03 1.47836 3.206 1.47836C4.368 1.47836 5.152 2.65436 5.152 5.59436C5.152 8.52036 4.368 9.76636 3.206 9.76636Z" fill="#BDBDBD"/>
<path d="M8.31163 10.6064H13.9396V9.54236H11.8676V0.638361H10.8876C10.3416 0.960361 9.68363 1.19836 8.75963 1.36636V2.19236H10.5936V9.54236H8.31163V10.6064Z" fill="#BDBDBD"/>
<path d="M18.7372 10.8024C20.7113 10.8024 21.9152 8.94036 21.9152 5.59436C21.9152 2.24836 20.7113 0.45636 18.7372 0.45636C16.7352 0.45636 15.5313 2.24836 15.5313 5.59436C15.5313 8.94036 16.7352 10.8024 18.7372 10.8024ZM18.7372 9.76636C17.5612 9.76636 16.7632 8.52036 16.7632 5.59436C16.7632 2.65436 17.5612 1.47836 18.7372 1.47836C19.8993 1.47836 20.6833 2.65436 20.6833 5.59436C20.6833 8.52036 19.8993 9.76636 18.7372 9.76636Z" fill="#BDBDBD"/>
<path d="M23.2549 7.19036H26.8389V6.21036H23.2549V7.19036Z" fill="#BDBDBD"/>
<path d="M27.2375 10.6064H28.5955L30.0795 7.83436C30.3315 7.33036 30.5975 6.81236 30.8915 6.18236H30.9475C31.2975 6.81236 31.5775 7.33036 31.8435 7.83436L33.3555 10.6064H34.7835L31.7875 5.37036L34.5875 0.34436H33.2295L31.8435 2.97636C31.5915 3.45236 31.3955 3.87236 31.1155 4.47436H31.0595C30.7375 3.87236 30.5135 3.45236 30.2475 2.97636L28.8615 0.34436H27.4195L30.2335 5.31436L27.2375 10.6064Z" fill="#BDBDBD"/>
<path d="M35.2629 10.6064H36.6209L38.1049 7.83436C38.3569 7.33036 38.6229 6.81236 38.9169 6.18236H38.9729C39.3229 6.81236 39.6029 7.33036 39.8689 7.83436L41.3809 10.6064H42.8089L39.8129 5.37036L42.6129 0.34436H41.2549L39.8689 2.97636C39.6169 3.45236 39.4209 3.87236 39.1409 4.47436H39.0849C38.7629 3.87236 38.5389 3.45236 38.2729 2.97636L36.8869 0.34436H35.4449L38.2589 5.31436L35.2629 10.6064Z" fill="#BDBDBD"/>
<path d="M43.2883 10.6064H44.6463L46.1303 7.83436C46.3823 7.33036 46.6483 6.81236 46.9423 6.18236H46.9983C47.3483 6.81236 47.6283 7.33036 47.8943 7.83436L49.4063 10.6064H50.8343L47.8383 5.37036L50.6383 0.34436H49.2803L47.8943 2.97636C47.6423 3.45236 47.4463 3.87236 47.1663 4.47436H47.1103C46.7883 3.87236 46.5643 3.45236 46.2983 2.97636L44.9123 0.34436H43.4703L46.2843 5.31436L43.2883 10.6064Z" fill="#BDBDBD"/>
<path d="M51.3137 10.6064H52.6717L54.1557 7.83436C54.4077 7.33036 54.6737 6.81236 54.9677 6.18236H55.0237C55.3737 6.81236 55.6537 7.33036 55.9197 7.83436L57.4317 10.6064H58.8597L55.8637 5.37036L58.6637 0.34436H57.3057L55.9197 2.97636C55.6677 3.45236 55.4717 3.87236 55.1917 4.47436H55.1357C54.8137 3.87236 54.5897 3.45236 54.3237 2.97636L52.9377 0.34436H51.4957L54.3097 5.31436L51.3137 10.6064Z" fill="#BDBDBD"/>
<path d="M59.2803 7.19036H62.8643V6.21036H59.2803V7.19036Z" fill="#BDBDBD"/>
<path d="M63.2629 10.6064H64.6209L66.1049 7.83436C66.3569 7.33036 66.6229 6.81236 66.9169 6.18236H66.9729C67.3229 6.81236 67.6029 7.33036 67.8689 7.83436L69.3809 10.6064H70.8089L67.8129 5.37036L70.6129 0.34436H69.2549L67.8689 2.97636C67.6169 3.45236 67.4209 3.87236 67.1409 4.47436H67.0849C66.7629 3.87236 66.5389 3.45236 66.2729 2.97636L64.8869 0.34436H63.4449L66.2589 5.31436L63.2629 10.6064Z" fill="#BDBDBD"/>
<path d="M71.2883 10.6064H72.6463L74.1303 7.83436C74.3823 7.33036 74.6483 6.81236 74.9423 6.18236H74.9983C75.3483 6.81236 75.6283 7.33036 75.8943 7.83436L77.4063 10.6064H78.8343L75.8383 5.37036L78.6383 0.34436H77.2803L75.8943 2.97636C75.6423 3.45236 75.4463 3.87236 75.1663 4.47436H75.1103C74.7883 3.87236 74.5643 3.45236 74.2983 2.97636L72.9123 0.34436H71.4703L74.2843 5.31436L71.2883 10.6064Z" fill="#BDBDBD"/>
<path d="M79.3137 10.6064H80.6717L82.1557 7.83436C82.4077 7.33036 82.6737 6.81236 82.9677 6.18236H83.0237C83.3737 6.81236 83.6537 7.33036 83.9197 7.83436L85.4317 10.6064H86.8597L83.8637 5.37036L86.6637 0.34436H85.3057L83.9197 2.97636C83.6677 3.45236 83.4717 3.87236 83.1917 4.47436H83.1357C82.8137 3.87236 82.5897 3.45236 82.3237 2.97636L80.9377 0.34436H79.4957L82.3097 5.31436L79.3137 10.6064Z" fill="#BDBDBD"/>
<path d="M87.3391 10.6064H88.6971L90.1811 7.83436C90.4331 7.33036 90.6991 6.81236 90.9931 6.18236H91.0491C91.3991 6.81236 91.6791 7.33036 91.9451 7.83436L93.4571 10.6064H94.8851L91.8891 5.37036L94.6891 0.34436H93.3311L91.9451 2.97636C91.6931 3.45236 91.4971 3.87236 91.2171 4.47436H91.1611C90.8391 3.87236 90.6151 3.45236 90.3491 2.97636L88.9631 0.34436H87.5211L90.3351 5.31436L87.3391 10.6064Z" fill="#BDBDBD"/>
</svg>
