<svg width="95" height="11" viewBox="0 0 95 11" fill="none" xmlns="http://www.w3.org/2000/svg">
<path d="M3.206 10.458C5.18 10.458 6.384 8.596 6.384 5.25C6.384 1.904 5.18 0.112 3.206 0.112C1.204 0.112 0 1.904 0 5.25C0 8.596 1.204 10.458 3.206 10.458ZM3.206 9.422C2.03 9.422 1.232 8.176 1.232 5.25C1.232 2.31 2.03 1.134 3.206 1.134C4.368 1.134 5.152 2.31 5.152 5.25C5.152 8.176 4.368 9.422 3.206 9.422Z" fill="#BDBDBD"/>
<path d="M8.31163 10.262H13.9396V9.198H11.8676V0.294H10.8876C10.3416 0.616 9.68363 0.854 8.75963 1.022V1.848H10.5936V9.198H8.31163V10.262Z" fill="#BDBDBD"/>
<path d="M18.7372 10.458C20.7113 10.458 21.9152 8.596 21.9152 5.25C21.9152 1.904 20.7113 0.112 18.7372 0.112C16.7352 0.112 15.5313 1.904 15.5313 5.25C15.5313 8.596 16.7352 10.458 18.7372 10.458ZM18.7372 9.422C17.5612 9.422 16.7632 8.176 16.7632 5.25C16.7632 2.31 17.5612 1.134 18.7372 1.134C19.8993 1.134 20.6833 2.31 20.6833 5.25C20.6833 8.176 19.8993 9.422 18.7372 9.422Z" fill="#BDBDBD"/>
<path d="M23.2549 6.846H26.8389V5.866H23.2549V6.846Z" fill="#BDBDBD"/>
<path d="M27.2375 10.262H28.5955L30.0795 7.49C30.3315 6.986 30.5975 6.468 30.8915 5.838H30.9475C31.2975 6.468 31.5775 6.986 31.8435 7.49L33.3555 10.262H34.7835L31.7875 5.026L34.5875 0H33.2295L31.8435 2.632C31.5915 3.108 31.3955 3.528 31.1155 4.13H31.0595C30.7375 3.528 30.5135 3.108 30.2475 2.632L28.8615 0H27.4195L30.2335 4.97L27.2375 10.262Z" fill="#BDBDBD"/>
<path d="M35.2629 10.262H36.6209L38.1049 7.49C38.3569 6.986 38.6229 6.468 38.9169 5.838H38.9729C39.3229 6.468 39.6029 6.986 39.8689 7.49L41.3809 10.262H42.8089L39.8129 5.026L42.6129 0H41.2549L39.8689 2.632C39.6169 3.108 39.4209 3.528 39.1409 4.13H39.0849C38.7629 3.528 38.5389 3.108 38.2729 2.632L36.8869 0H35.4449L38.2589 4.97L35.2629 10.262Z" fill="#BDBDBD"/>
<path d="M43.2883 10.262H44.6463L46.1303 7.49C46.3823 6.986 46.6483 6.468 46.9423 5.838H46.9983C47.3483 6.468 47.6283 6.986 47.8943 7.49L49.4063 10.262H50.8343L47.8383 5.026L50.6383 0H49.2803L47.8943 2.632C47.6423 3.108 47.4463 3.528 47.1663 4.13H47.1103C46.7883 3.528 46.5643 3.108 46.2983 2.632L44.9123 0H43.4703L46.2843 4.97L43.2883 10.262Z" fill="#BDBDBD"/>
<path d="M51.3137 10.262H52.6717L54.1557 7.49C54.4077 6.986 54.6737 6.468 54.9677 5.838H55.0237C55.3737 6.468 55.6537 6.986 55.9197 7.49L57.4317 10.262H58.8597L55.8637 5.026L58.6637 0H57.3057L55.9197 2.632C55.6677 3.108 55.4717 3.528 55.1917 4.13H55.1357C54.8137 3.528 54.5897 3.108 54.3237 2.632L52.9377 0H51.4957L54.3097 4.97L51.3137 10.262Z" fill="#BDBDBD"/>
<path d="M59.2803 6.846H62.8643V5.866H59.2803V6.846Z" fill="#BDBDBD"/>
<path d="M63.2629 10.262H64.6209L66.1049 7.49C66.3569 6.986 66.6229 6.468 66.9169 5.838H66.9729C67.3229 6.468 67.6029 6.986 67.8689 7.49L69.3809 10.262H70.8089L67.8129 5.026L70.6129 0H69.2549L67.8689 2.632C67.6169 3.108 67.4209 3.528 67.1409 4.13H67.0849C66.7629 3.528 66.5389 3.108 66.2729 2.632L64.8869 0H63.4449L66.2589 4.97L63.2629 10.262Z" fill="#BDBDBD"/>
<path d="M71.2883 10.262H72.6463L74.1303 7.49C74.3823 6.986 74.6483 6.468 74.9423 5.838H74.9983C75.3483 6.468 75.6283 6.986 75.8943 7.49L77.4063 10.262H78.8343L75.8383 5.026L78.6383 0H77.2803L75.8943 2.632C75.6423 3.108 75.4463 3.528 75.1663 4.13H75.1103C74.7883 3.528 74.5643 3.108 74.2983 2.632L72.9123 0H71.4703L74.2843 4.97L71.2883 10.262Z" fill="#BDBDBD"/>
<path d="M79.3137 10.262H80.6717L82.1557 7.49C82.4077 6.986 82.6737 6.468 82.9677 5.838H83.0237C83.3737 6.468 83.6537 6.986 83.9197 7.49L85.4317 10.262H86.8597L83.8637 5.026L86.6637 0H85.3057L83.9197 2.632C83.6677 3.108 83.4717 3.528 83.1917 4.13H83.1357C82.8137 3.528 82.5897 3.108 82.3237 2.632L80.9377 0H79.4957L82.3097 4.97L79.3137 10.262Z" fill="#BDBDBD"/>
<path d="M87.3391 10.262H88.6971L90.1811 7.49C90.4331 6.986 90.6991 6.468 90.9931 5.838H91.0491C91.3991 6.468 91.6791 6.986 91.9451 7.49L93.4571 10.262H94.8851L91.8891 5.026L94.6891 0H93.3311L91.9451 2.632C91.6931 3.108 91.4971 3.528 91.2171 4.13H91.1611C90.8391 3.528 90.6151 3.108 90.3491 2.632L88.9631 0H87.5211L90.3351 4.97L87.3391 10.262Z" fill="#BDBDBD"/>
</svg>
