<svg width="28" height="28" viewBox="0 0 28 28" fill="none" xmlns="http://www.w3.org/2000/svg">
<path d="M9.39518 21.1744V22.5633C9.39518 23.6684 9.8992 24.7282 10.7964 25.5096C11.6935 26.291 12.9104 26.73 14.1792 26.73C15.4479 26.73 16.6648 26.291 17.5619 25.5096C18.4591 24.7282 18.9631 23.6684 18.9631 22.5633V21.1744M10.9898 4.50776C10.9898 3.77105 11.3259 3.06451 11.924 2.54357C12.5221 2.02264 13.3333 1.72998 14.1792 1.72998C15.025 1.72998 15.8362 2.02264 16.4343 2.54357C17.0325 3.06451 17.3685 3.77105 17.3685 4.50776C19.1998 5.26196 20.761 6.43599 21.8846 7.90401C23.0083 9.37203 23.6521 11.0787 23.7471 12.8411V17.0078C23.8671 17.8712 24.2182 18.6981 24.7722 19.4218C25.3261 20.1455 26.0674 20.7458 26.9364 21.1744H1.42188C2.29087 20.7458 3.03218 20.1455 3.58613 19.4218C4.14008 18.6981 4.49119 17.8712 4.6112 17.0078V12.8411C4.70617 11.0787 5.35 9.37203 6.47368 7.90401C7.59735 6.43599 9.15851 5.26196 10.9898 4.50776Z" stroke="#AAAAAA" stroke-width="2" stroke-linecap="round" stroke-linejoin="round"/>
</svg>
