<svg width="320" height="80" viewBox="0 0 320 80" fill="none" xmlns="http://www.w3.org/2000/svg">
<path d="M0 34.3444C0 31.5829 2.23858 29.3444 5 29.3444H315C317.761 29.3444 320 31.5829 320 34.3444V74.3444C320 77.1058 317.761 79.3444 315 79.3444H5C2.23858 79.3444 0 77.1058 0 74.3444V34.3444Z" fill="white"/>
<path fill-rule="evenodd" clip-rule="evenodd" d="M315 30.3444H5C2.79086 30.3444 1 32.1352 1 34.3444V74.3444C1 76.5535 2.79086 78.3444 5 78.3444H315C317.209 78.3444 319 76.5535 319 74.3444V34.3444C319 32.1352 317.209 30.3444 315 30.3444ZM5 29.3444C2.23858 29.3444 0 31.5829 0 34.3444V74.3444C0 77.1058 2.23858 79.3444 5 79.3444H315C317.761 79.3444 320 77.1058 320 74.3444V34.3444C320 31.5829 317.761 29.3444 315 29.3444H5Z" fill="#AEAEAE"/>
<path d="M0 34.3444C0 31.5829 2.23858 29.3444 5 29.3444H315C317.761 29.3444 320 31.5829 320 34.3444V74.3444C320 77.1058 317.761 79.3444 315 79.3444H5C2.23858 79.3444 0 77.1058 0 74.3444V34.3444Z" fill="white"/>
<path fill-rule="evenodd" clip-rule="evenodd" d="M315 30.3444H5C2.79086 30.3444 1 32.1352 1 34.3444V74.3444C1 76.5535 2.79086 78.3444 5 78.3444H315C317.209 78.3444 319 76.5535 319 74.3444V34.3444C319 32.1352 317.209 30.3444 315 30.3444ZM5 29.3444C2.23858 29.3444 0 31.5829 0 34.3444V74.3444C0 77.1058 2.23858 79.3444 5 79.3444H315C317.761 79.3444 320 77.1058 320 74.3444V34.3444C320 31.5829 317.761 29.3444 315 29.3444H5Z" fill="#AEAEAE"/>
<path d="M17.454 51.6003V52.5523H21.318V51.6003H17.454ZM17.454 54.5123V55.4783H21.318V54.5123H17.454ZM15.144 50.5223C13.268 50.5223 11.882 51.7823 11.882 53.5323C11.882 55.2963 13.268 56.5423 15.144 56.5423C17.006 56.5423 18.406 55.2963 18.406 53.5323C18.406 51.7823 17.006 50.5223 15.144 50.5223ZM15.144 51.5163C16.376 51.5163 17.3 52.3423 17.3 53.5323C17.3 54.7223 16.376 55.5483 15.144 55.5483C13.912 55.5483 13.002 54.7223 13.002 53.5323C13.002 52.3423 13.912 51.5163 15.144 51.5163ZM20.94 49.7803V57.2703H22.102V49.7803H20.94ZM17.944 57.5643C15.326 57.5643 13.716 58.4603 13.716 59.9863C13.716 61.5263 15.326 62.4083 17.944 62.4083C20.548 62.4083 22.158 61.5263 22.158 59.9863C22.158 58.4603 20.548 57.5643 17.944 57.5643ZM17.944 58.4883C19.848 58.4883 21.01 59.0483 21.01 59.9863C21.01 60.9383 19.848 61.4983 17.944 61.4983C16.026 61.4983 14.864 60.9383 14.864 59.9863C14.864 59.0483 16.026 58.4883 17.944 58.4883Z" fill="#BDBDBD"/>
<path d="M24.5649 56.2483V57.2003H36.0309V56.2483H24.5649ZM29.8009 56.8363V59.7483H30.9629V56.8363H29.8009ZM26.0349 50.3683V54.8203H34.5469V50.3683H26.0349ZM33.3989 51.3063V53.8823H27.1689V51.3063H33.3989ZM26.0209 61.2043V62.1563H34.7569V61.2043H26.0209ZM26.0209 58.5303V61.5403H27.1689V58.5303H26.0209Z" fill="#BDBDBD"/>
<path d="M37.7938 64.0043C39.0678 63.4863 39.8378 62.4363 39.8378 61.0783C39.8378 60.1543 39.4318 59.5803 38.7598 59.5803C38.2418 59.5803 37.8078 59.9163 37.8078 60.4763C37.8078 61.0503 38.2418 61.3723 38.7318 61.3723C38.9838 61.3723 39.2078 61.3023 39.3758 61.0923L38.7598 60.1683L38.8998 61.3163C38.8998 62.1703 38.3678 62.8703 37.4998 63.2623L37.7938 64.0043Z" fill="#BDBDBD"/>
<path d="M44.4711 55.5343V56.5003H55.9511V55.5343H44.4711ZM49.6091 55.9683V57.9003H50.7431V55.9683H49.6091ZM49.5811 58.4883V58.8803C49.5811 60.2243 47.5931 61.2603 45.3111 61.4983L45.6891 62.3943C48.3351 62.0863 50.5751 60.8123 50.5751 58.8803V58.4883H49.5811ZM49.7771 58.4883V58.8803C49.7771 60.8543 52.0311 62.0863 54.6631 62.3943L55.0411 61.4983C52.7451 61.2743 50.7711 60.2663 50.7711 58.8803V58.4883H49.7771ZM49.6091 49.9343V50.4943C49.6091 52.0903 47.3971 53.4203 45.1151 53.7143L45.5351 54.6103C48.1531 54.2323 50.6031 52.6783 50.6031 50.4943V49.9343H49.6091ZM49.7911 49.9343V50.4943C49.7911 52.6503 52.2691 54.2323 54.8451 54.6103L55.2651 53.7143C53.0251 53.4203 50.7851 52.0483 50.7851 50.4943V49.9343H49.7911Z" fill="#BDBDBD"/>
<path d="M60.486 51.5863V53.6443C60.486 55.7863 58.96 58.1943 57.154 59.0763L57.826 60.0003C59.8 58.9923 61.41 56.2763 61.41 53.6443V51.5863H60.486ZM60.696 51.5863V53.6443C60.696 56.1503 62.222 58.6983 64.224 59.6923L64.882 58.7683C63.048 57.9003 61.62 55.6463 61.62 53.6443V51.5863H60.696ZM57.602 51.0683V52.0483H64.42V51.0683H57.602ZM65.918 49.7803V62.4363H67.094V49.7803H65.918ZM66.814 54.8903V55.8703H69.166V54.8903H66.814Z" fill="#BDBDBD"/>
<path d="M73.3738 59.8463V60.8123H84.8398V59.8463H73.3738ZM78.5258 56.7803V60.1683H79.6738V56.7803H78.5258ZM78.4978 51.3763V52.1603C78.4978 54.1623 76.1038 55.9403 73.9198 56.3043L74.3958 57.2283C76.8878 56.7103 79.4778 54.7503 79.4778 52.1603V51.3763H78.4978ZM78.7078 51.3763V52.1603C78.7078 54.7503 81.3118 56.6823 83.8458 57.1863L84.3078 56.2623C82.0958 55.8983 79.6878 54.1623 79.6878 52.1603V51.3763H78.7078ZM74.3118 50.9283V51.8803H83.8738V50.9283H74.3118Z" fill="#BDBDBD"/>
<path d="M94.9047 49.7803V57.1303H96.0667V49.7803H94.9047ZM95.5627 53.0003V53.9803H97.9427V53.0003H95.5627ZM88.1147 57.6903V62.2683H96.0667V57.6903H94.9187V59.0343H89.2487V57.6903H88.1147ZM89.2487 59.9303H94.9187V61.3303H89.2487V59.9303ZM86.2807 51.0683V52.0203H93.7567V51.0683H86.2807ZM90.0187 52.5943C88.1987 52.5943 86.9807 53.4763 86.9807 54.8203C86.9807 56.1643 88.1987 57.0463 90.0187 57.0463C91.8247 57.0463 93.0427 56.1643 93.0427 54.8203C93.0427 53.4763 91.8247 52.5943 90.0187 52.5943ZM90.0187 53.4763C91.1527 53.4763 91.9367 54.0083 91.9367 54.8203C91.9367 55.6323 91.1527 56.1643 90.0187 56.1643C88.8567 56.1643 88.0867 55.6323 88.0867 54.8203C88.0867 54.0083 88.8567 53.4763 90.0187 53.4763ZM89.4307 49.6543V51.5863H90.5927V49.6543H89.4307Z" fill="#BDBDBD"/>
<path d="M105.468 61.5403C107.386 61.5403 108.688 60.3783 108.688 58.8803C108.688 57.4803 107.848 56.6963 106.952 56.1783V56.1083C107.568 55.6323 108.324 54.7223 108.324 53.6303C108.324 52.0623 107.26 50.9423 105.51 50.9423C103.9 50.9423 102.682 51.9783 102.682 53.5323C102.682 54.6103 103.326 55.3943 104.082 55.9123V55.9683C103.144 56.4723 102.192 57.4243 102.192 58.8103C102.192 60.3923 103.578 61.5403 105.468 61.5403ZM106.168 55.7863C104.964 55.3103 103.858 54.7643 103.858 53.5323C103.858 52.5523 104.544 51.8803 105.482 51.8803C106.588 51.8803 107.232 52.6923 107.232 53.7003C107.232 54.4703 106.868 55.1703 106.168 55.7863ZM105.496 60.5743C104.264 60.5743 103.34 59.7763 103.34 58.6843C103.34 57.7043 103.914 56.8923 104.754 56.3603C106.196 56.9483 107.456 57.4663 107.456 58.8383C107.456 59.8603 106.672 60.5743 105.496 60.5743Z" fill="#BDBDBD"/>
<path d="M114.578 57.3263C115.25 57.3263 115.95 56.9063 116.524 55.9403L115.81 55.4223C115.46 56.0943 115.068 56.3743 114.606 56.3743C113.724 56.3743 113.066 55.0443 111.834 55.0443C111.162 55.0443 110.448 55.4643 109.888 56.4583L110.602 56.9623C110.966 56.2903 111.358 56.0103 111.806 56.0103C112.688 56.0103 113.36 57.3263 114.578 57.3263Z" fill="#BDBDBD"/>
<path d="M118.326 61.3443H123.954V60.2803H121.882V51.0823H120.902C120.356 51.4183 119.698 51.6563 118.774 51.8103V52.6363H120.608V60.2803H118.326V61.3443Z" fill="#BDBDBD"/>
<path d="M129.073 61.5403C130.655 61.5403 132.013 60.1963 132.013 58.2083C132.013 56.0523 130.893 54.9883 129.157 54.9883C128.331 54.9883 127.379 55.4923 126.749 56.3183L126.791 57.3403C127.477 56.3183 128.303 55.9263 128.961 55.9263C130.193 55.9263 130.809 56.8083 130.809 58.2083C130.809 59.5943 130.053 60.5323 129.073 60.5323C127.631 60.5323 126.833 59.0903 126.833 56.4583C126.833 53.0983 128.037 51.9643 129.479 51.9643C130.095 51.9643 130.725 52.2583 131.117 52.7343L131.831 51.9503C131.271 51.3483 130.487 50.9003 129.423 50.9003C127.435 50.9003 125.629 52.4403 125.629 56.4583C125.629 59.8463 127.099 61.5403 129.073 61.5403Z" fill="#BDBDBD"/>
<path d="M136.447 51.5863V53.6443C136.447 55.7863 134.921 58.1943 133.115 59.0763L133.787 60.0003C135.761 58.9923 137.371 56.2763 137.371 53.6443V51.5863H136.447ZM136.657 51.5863V53.6443C136.657 56.1503 138.183 58.6983 140.185 59.6923L140.843 58.7683C139.009 57.9003 137.581 55.6463 137.581 53.6443V51.5863H136.657ZM133.563 51.0683V52.0483H140.381V51.0683H133.563ZM141.879 49.7803V62.4363H143.055V49.7803H141.879ZM142.775 54.8903V55.8703H145.127V54.8903H142.775Z" fill="#BDBDBD"/>
</svg>
