<svg width="273" height="44" viewBox="0 0 273 44" fill="none" xmlns="http://www.w3.org/2000/svg">
<path d="M0.691162 4.80755C0.691162 2.59841 2.48202 0.807556 4.69116 0.807556H268.403C270.612 0.807556 272.403 2.59842 272.403 4.80756V39.0431C272.403 41.2523 270.612 43.0431 268.403 43.0431H4.69116C2.48202 43.0431 0.691162 41.2523 0.691162 39.0431V4.80755Z" fill="white"/>
<path d="M1.19116 4.80755C1.19116 2.87456 2.75817 1.30756 4.69116 1.30756H268.403C270.336 1.30756 271.903 2.87456 271.903 4.80756V39.0431C271.903 40.9761 270.336 42.5431 268.403 42.5431H4.69116C2.75816 42.5431 1.19116 40.9761 1.19116 39.0431V4.80755Z" stroke="black" stroke-opacity="0.25"/>
</svg>
