<svg width="273" height="43" viewBox="0 0 273 43" fill="none" xmlns="http://www.w3.org/2000/svg">
<path d="M0.691162 4.51422C0.691162 2.30508 2.48202 0.514221 4.69116 0.514221H268.403C270.612 0.514221 272.403 2.30508 272.403 4.51422V38.7498C272.403 40.9589 270.612 42.7498 268.403 42.7498H4.69116C2.48202 42.7498 0.691162 40.9589 0.691162 38.7498V4.51422Z" fill="white"/>
<path d="M1.19116 4.51422C1.19116 2.58122 2.75816 1.01422 4.69116 1.01422H268.403C270.336 1.01422 271.903 2.58122 271.903 4.51422V38.7498C271.903 40.6828 270.336 42.2498 268.403 42.2498H4.69116C2.75816 42.2498 1.19116 40.6828 1.19116 38.7498V4.51422Z" stroke="black" stroke-opacity="0.25"/>
</svg>
