<svg width="320" height="51" viewBox="0 0 320 51" fill="none" xmlns="http://www.w3.org/2000/svg">
<path fill-rule="evenodd" clip-rule="evenodd" d="M315 1.34436H5C2.79086 1.34436 1 3.13522 1 5.34436V45.3444C1 47.5535 2.79086 49.3444 5 49.3444H315C317.209 49.3444 319 47.5535 319 45.3444V5.34436C319 3.13522 317.209 1.34436 315 1.34436ZM5 0.34436C2.23858 0.34436 0 2.58294 0 5.34436V45.3444C0 48.1058 2.23858 50.3444 5 50.3444H315C317.761 50.3444 320 48.1058 320 45.3444V5.34436C320 2.58294 317.761 0.34436 315 0.34436H5Z" fill="#AEAEAE"/>
</svg>
