<svg width="273" height="43" viewBox="0 0 273 43" fill="none" xmlns="http://www.w3.org/2000/svg">
<path d="M0.691162 4.04754C0.691162 1.8384 2.48202 0.0475464 4.69116 0.0475464H268.403C270.612 0.0475464 272.403 1.83841 272.403 4.04755V38.2831C272.403 40.4922 270.612 42.2831 268.403 42.2831H4.69116C2.48202 42.2831 0.691162 40.4922 0.691162 38.2831V4.04754Z" fill="white"/>
<path d="M1.19116 4.04754C1.19116 2.11455 2.75817 0.547546 4.69116 0.547546H268.403C270.336 0.547546 271.903 2.11455 271.903 4.04755V38.2831C271.903 40.2161 270.336 41.7831 268.403 41.7831H4.69116C2.75816 41.7831 1.19116 40.2161 1.19116 38.2831V4.04754Z" stroke="black" stroke-opacity="0.25"/>
</svg>
