<svg width="269" height="44" viewBox="0 0 269 44" fill="none" xmlns="http://www.w3.org/2000/svg">
<path d="M0.886719 4.5C0.886719 2.29086 2.67758 0.5 4.88672 0.5H264.887C267.096 0.5 268.887 2.29086 268.887 4.5V39.5C268.887 41.7091 267.096 43.5 264.887 43.5H4.88672C2.67758 43.5 0.886719 41.7091 0.886719 39.5V4.5Z" fill="white"/>
<path d="M1.38672 4.5C1.38672 2.567 2.95372 1 4.88672 1H264.887C266.82 1 268.387 2.567 268.387 4.5V39.5C268.387 41.433 266.82 43 264.887 43H4.88672C2.95372 43 1.38672 41.433 1.38672 39.5V4.5Z" stroke="black" stroke-opacity="0.25"/>
</svg>
