<svg width="273" height="43" viewBox="0 0 273 43" fill="none" xmlns="http://www.w3.org/2000/svg">
<path d="M0.691162 4.42974C0.691162 2.22061 2.48202 0.429749 4.69116 0.429749H268.403C270.612 0.429749 272.403 2.22061 272.403 4.42975V38.6653C272.403 40.8744 270.612 42.6653 268.403 42.6653H4.69116C2.48202 42.6653 0.691162 40.8744 0.691162 38.6653V4.42974Z" fill="white"/>
<path d="M1.19116 4.42974C1.19116 2.49675 2.75817 0.929749 4.69116 0.929749H268.403C270.336 0.929749 271.903 2.49675 271.903 4.42975V38.6653C271.903 40.5983 270.336 42.1653 268.403 42.1653H4.69116C2.75816 42.1653 1.19116 40.5983 1.19116 38.6653V4.42974Z" stroke="black" stroke-opacity="0.25"/>
</svg>
