<svg width="32" height="31" viewBox="0 0 32 31" fill="none" xmlns="http://www.w3.org/2000/svg">
<path d="M15.9999 3.875C23.7332 3.875 30.0012 8.60767 30.0012 14.4473C30.0012 20.2856 23.7332 25.0183 16.0012 25.0183C15.2313 25.0186 14.4622 24.9712 13.6986 24.8762L7.82122 28.6001C7.15322 28.9424 6.91722 28.9049 7.19189 28.0666L8.38122 23.3159C4.54122 21.43 2.00122 18.1621 2.00122 14.4473C2.00122 8.60896 8.26789 3.875 16.0012 3.875H15.9999ZM23.8772 14.2858L25.8372 12.4465C25.9503 12.3327 26.0134 12.1808 26.0132 12.0229C26.013 11.8649 25.9495 11.7132 25.8362 11.5997C25.7228 11.4862 25.5684 11.4197 25.4054 11.4143C25.2424 11.4089 25.0837 11.465 24.9626 11.5708L22.3919 13.981V11.9892C22.3919 11.8276 22.3256 11.6725 22.2076 11.5582C22.0895 11.4438 21.9295 11.3796 21.7626 11.3796C21.5956 11.3796 21.4356 11.4438 21.3175 11.5582C21.1995 11.6725 21.1332 11.8276 21.1332 11.9892V15.292C21.1097 15.3863 21.1097 15.4846 21.1332 15.5788V17.4375C21.1332 17.5992 21.1995 17.7543 21.3175 17.8686C21.4356 17.9829 21.5956 18.0472 21.7626 18.0472C21.9295 18.0472 22.0895 17.9829 22.2076 17.8686C22.3256 17.7543 22.3919 17.5992 22.3919 17.4375V15.677L22.9612 15.1435L24.8652 17.7695C24.9128 17.835 24.9732 17.8909 25.043 17.9338C25.1128 17.9768 25.1907 18.006 25.2721 18.0198C25.3536 18.0335 25.4371 18.0317 25.5178 18.0142C25.5985 17.9967 25.6749 17.9641 25.7426 17.918C25.8102 17.8719 25.8679 17.8134 25.9122 17.7458C25.9565 17.6782 25.9867 17.6027 26.0009 17.5238C26.0152 17.4449 26.0132 17.364 25.9952 17.2858C25.9772 17.2076 25.9434 17.1336 25.8959 17.0681L23.8772 14.2845V14.2858ZM19.9332 16.771H17.9866V12.0086C17.9791 11.852 17.9096 11.7041 17.7925 11.5958C17.6755 11.4875 17.5198 11.427 17.3579 11.427C17.196 11.427 17.0403 11.4875 16.9232 11.5958C16.8062 11.7041 16.7367 11.852 16.7292 12.0086V17.3807C16.7292 17.7165 17.0092 17.9903 17.3572 17.9903H19.9332C20.1001 17.9903 20.2602 17.9261 20.3782 17.8118C20.4963 17.6974 20.5626 17.5424 20.5626 17.3807C20.5626 17.219 20.4963 17.0639 20.3782 16.9496C20.2602 16.8352 20.1001 16.771 19.9332 16.771ZM12.1239 15.3618L13.0519 13.1556L13.9026 15.3605L12.1239 15.3618ZM15.4879 15.9908L15.4906 15.9702C15.4902 15.8166 15.4297 15.6688 15.3212 15.5568L13.9266 11.9402C13.8681 11.7678 13.7567 11.6169 13.6073 11.5075C13.458 11.398 13.2777 11.3354 13.0906 11.3279C12.9021 11.3271 12.7178 11.3819 12.5623 11.4851C12.4067 11.5882 12.2873 11.7348 12.2199 11.9053L10.0039 17.1688C9.94077 17.3185 9.94162 17.4864 10.0063 17.6355C10.0709 17.7846 10.194 17.9027 10.3486 17.9639C10.5031 18.025 10.6764 18.0242 10.8303 17.9616C10.9842 17.8989 11.1061 17.7797 11.1692 17.63L11.6119 16.5798H14.3719L14.7692 17.6132C14.7963 17.6904 14.8392 17.7616 14.8952 17.8225C14.9512 17.8834 15.0193 17.9328 15.0954 17.9678C15.1714 18.0027 15.254 18.0226 15.3381 18.026C15.4223 18.0295 15.5063 18.0166 15.5852 17.9881C15.6641 17.9596 15.7362 17.916 15.7974 17.8599C15.8586 17.8039 15.9076 17.7365 15.9414 17.6618C15.9752 17.5871 15.9932 17.5066 15.9943 17.425C15.9955 17.3434 15.9797 17.2625 15.9479 17.1869L15.4879 15.9908ZM11.0586 12.0151C11.0586 11.8536 10.9924 11.6987 10.8747 11.5844C10.757 11.4701 10.5972 11.4058 10.4306 11.4054H6.10389C5.93698 11.4054 5.7769 11.4696 5.65888 11.584C5.54086 11.6983 5.47455 11.8534 5.47455 12.0151C5.47455 12.1768 5.54086 12.3318 5.65888 12.4462C5.7769 12.5605 5.93698 12.6248 6.10389 12.6248H7.65055V17.4504C7.65055 17.6121 7.71686 17.7672 7.83488 17.8815C7.9529 17.9959 8.11298 18.0601 8.27989 18.0601C8.4468 18.0601 8.60687 17.9959 8.72489 17.8815C8.84292 17.7672 8.90922 17.6121 8.90922 17.4504V12.6248H10.4292C10.5961 12.6248 10.7562 12.5605 10.8742 12.4462C10.9922 12.3318 11.0586 12.1768 11.0586 12.0151Z" fill="#222222"/>
</svg>
